<svg width="16" height="16" viewBox="0 0 16 16" fill="none" xmlns="http://www.w3.org/2000/svg">
<rect width="16" height="16" fill="black" fill-opacity="0"/>
<path d="M12.6518 9.91144C12.3238 9.57037 11.9281 9.38801 11.5087 9.38801C11.0928 9.38801 10.6937 9.56699 10.3522 9.90806L9.2835 10.9718C9.19557 10.9245 9.10764 10.8806 9.0231 10.8367C8.90135 10.7759 8.78637 10.7185 8.6883 10.6577C7.68728 10.0229 6.77757 9.19553 5.90505 8.12505C5.48233 7.5915 5.19825 7.14237 4.99196 6.68649C5.26927 6.43322 5.52629 6.16982 5.77655 5.91655C5.87124 5.822 5.96593 5.72407 6.06062 5.62951C6.7708 4.92036 6.7708 4.00184 6.06062 3.29269L5.13738 2.37079C5.03254 2.26611 4.92433 2.15805 4.82287 2.04999C4.61996 1.84062 4.40691 1.6245 4.18709 1.42188C3.85905 1.0977 3.46676 0.925476 3.05418 0.925476C2.64159 0.925476 2.24254 1.0977 1.90436 1.42188C1.90097 1.42526 1.90097 1.42526 1.89759 1.42864L0.747772 2.58692C0.314898 3.01916 0.0680249 3.54596 0.0139157 4.15718C-0.0672481 5.14324 0.223589 6.06176 0.446789 6.66285C0.994645 8.13856 1.81305 9.50621 3.03389 10.9718C4.51512 12.7379 6.29735 14.1326 8.33321 15.1153C9.11102 15.4833 10.1492 15.919 11.3092 15.9933C11.3802 15.9966 11.4546 16 11.5223 16C12.3035 16 12.9595 15.7197 13.4736 15.1625C13.477 15.1558 13.4837 15.1524 13.4871 15.1456C13.663 14.9329 13.8659 14.7404 14.0789 14.5344C14.2243 14.396 14.3731 14.2508 14.5186 14.0988C14.8534 13.751 15.0292 13.3458 15.0292 12.9304C15.0292 12.5117 14.85 12.1098 14.5084 11.7721L12.6518 9.91144ZM13.8625 13.4673C13.8591 13.4673 13.8591 13.4707 13.8625 13.4673C13.7306 13.6092 13.5953 13.7375 13.4499 13.8793C13.2301 14.0887 13.0069 14.3082 12.7972 14.5547C12.4557 14.9194 12.0532 15.0916 11.5256 15.0916C11.4749 15.0916 11.4208 15.0916 11.3701 15.0882C10.3657 15.0241 9.4323 14.6324 8.73226 14.298C6.81815 13.3728 5.13738 12.0592 3.74069 10.3943C2.58748 9.00642 1.81643 7.7232 1.30577 6.34542C0.991263 5.50457 0.876281 4.84945 0.927008 4.23147C0.960827 3.83637 1.11301 3.50881 1.3937 3.22853L2.5469 2.077C2.71261 1.92166 2.88847 1.83724 3.06094 1.83724C3.274 1.83724 3.44647 1.96556 3.55469 2.07363C3.55807 2.077 3.56145 2.08038 3.56483 2.08376C3.77112 2.27624 3.96727 2.47548 4.17356 2.68822C4.2784 2.79628 4.38662 2.90435 4.49483 3.01578L5.41807 3.93768C5.77655 4.29563 5.77655 4.62657 5.41807 4.98452C5.32 5.08245 5.22531 5.18038 5.12723 5.27494C4.84316 5.56535 4.57262 5.8355 4.2784 6.0989C4.27163 6.10566 4.26487 6.10903 4.26149 6.11579C3.97065 6.4062 4.02476 6.68986 4.08563 6.88235C4.08901 6.89248 4.0924 6.90261 4.09578 6.91274C4.33589 7.49357 4.67407 8.04063 5.18811 8.69237L5.19149 8.69575C6.12487 9.8439 7.10898 10.7388 8.19455 11.4243C8.33321 11.5121 8.47524 11.583 8.61051 11.6505C8.73226 11.7113 8.84724 11.7687 8.94531 11.8295C8.95884 11.8363 8.97237 11.8464 8.9859 11.8532C9.10088 11.9106 9.2091 11.9376 9.3207 11.9376C9.60139 11.9376 9.77724 11.762 9.83474 11.7046L10.9913 10.5497C11.1063 10.4349 11.2889 10.2964 11.502 10.2964C11.7116 10.2964 11.8841 10.4281 11.989 10.5429C11.9923 10.5463 11.9923 10.5463 11.9957 10.5497L13.8591 12.4103C14.2074 12.7548 14.2074 13.1094 13.8625 13.4673Z" fill="#284997"/>
<path d="M8.64771 3.80597C9.53375 3.95456 10.3386 4.37329 10.9812 5.01491C11.6237 5.65652 12.0397 6.46022 12.1919 7.34498C12.2291 7.56785 12.4218 7.72319 12.6416 7.72319C12.6687 7.72319 12.6924 7.71981 12.7194 7.71644C12.9697 7.67591 13.1354 7.43953 13.0948 7.18964C12.9122 6.11916 12.4049 5.14323 11.6305 4.36992C10.856 3.5966 9.87869 3.09007 8.80665 2.90771C8.5564 2.86719 8.32305 3.03266 8.27909 3.27917C8.23513 3.52569 8.39745 3.76545 8.64771 3.80597Z" fill="#284997"/>
<path d="M15.993 7.05794C15.692 5.29519 14.8601 3.69116 13.5818 2.41469C12.3035 1.13822 10.6971 0.307495 8.93178 0.00695018C8.68491 -0.0369497 8.45156 0.131896 8.4076 0.37841C8.36702 0.628302 8.53273 0.861309 8.78298 0.905208C10.3589 1.17198 11.7962 1.91828 12.9392 3.0563C14.0823 4.1977 14.8263 5.63288 15.0935 7.20652C15.1307 7.4294 15.3234 7.58474 15.5432 7.58474C15.5703 7.58474 15.594 7.58136 15.621 7.57798C15.8679 7.54084 16.037 7.30445 15.993 7.05794Z" fill="#284997"/>
</svg>
