<svg width="16" height="13" viewBox="0 0 16 13" fill="none" xmlns="http://www.w3.org/2000/svg">
<path d="M16 1.53889C15.4113 1.79989 14.7787 1.97632 14.1147 2.05565C14.7924 1.64949 15.3129 1.00634 15.558 0.239948C14.9237 0.616085 14.2212 0.889183 13.4735 1.03634C12.8747 0.398507 12.0216 0 11.0774 0C9.26458 0 7.79486 1.46934 7.79486 3.28176C7.79486 3.53898 7.82389 3.78946 7.87986 4.02969C5.15174 3.89278 2.73296 2.58625 1.11397 0.600651C0.831405 1.08536 0.669499 1.64911 0.669499 2.25058C0.669499 3.3892 1.249 4.39374 2.12981 4.98227C1.59172 4.96521 1.08556 4.81758 0.64303 4.57176C0.642717 4.58545 0.642717 4.59919 0.642717 4.61303C0.642717 6.20313 1.77425 7.52953 3.27587 7.83109C3.00046 7.90604 2.71043 7.94628 2.41106 7.94628C2.19953 7.94628 1.9939 7.92566 1.79343 7.88729C2.21118 9.19107 3.42343 10.1401 4.85986 10.1665C3.73643 11.0468 2.32103 11.5714 0.783061 11.5714C0.518093 11.5714 0.256812 11.5559 0 11.5254C1.45268 12.4567 3.17815 13 5.0319 13C11.0697 13 14.3715 7.99914 14.3715 3.66227C14.3715 3.51999 14.3683 3.37846 14.362 3.23767C15.0034 2.77499 15.5599 2.19699 16 1.53889Z" fill="#AAAAAA"/>
</svg>
