<svg width="16" height="16" viewBox="0 0 16 16" fill="none" xmlns="http://www.w3.org/2000/svg">
<path d="M0 0V16H16V0H0ZM11.6707 8.91586L13.0603 10.5125C13.2379 10.7166 13.0929 11.035 12.8223 11.035H11.2542C11.0064 11.035 10.7677 10.9412 10.5863 10.7725L10.1219 10.3407C9.59788 9.88218 9.37515 9.72493 9.16555 9.72493C8.95594 9.72493 8.90353 9.88212 8.90353 10.2883C8.90353 10.6944 8.82493 11.035 7.61966 11.035C6.41439 11.035 5.47114 10.1311 4.40999 8.72933C3.34885 7.32757 2.87723 5.82098 2.87723 5.82098C2.81868 5.63241 2.95964 5.44107 3.15712 5.44107H4.41197C4.65065 5.44107 4.86804 5.579 4.96812 5.79566C5.07085 6.01806 5.24755 6.36124 5.54979 6.869C5.97869 7.58953 6.39072 7.91412 6.62412 8.05232C6.71102 8.10381 6.82061 8.04019 6.82061 7.93918V6.21091C6.82061 5.98476 6.73891 5.76626 6.5905 5.59562L6.4136 5.39221C6.36784 5.3396 6.40522 5.25764 6.47491 5.25764H8.45814C8.76203 5.25764 9.00836 5.50397 9.00836 5.80786V7.81773C9.00836 7.94722 9.17643 7.99786 9.24796 7.88999L10.6754 5.73876C10.7879 5.56918 10.9779 5.46718 11.1814 5.46718H12.857C13.086 5.46718 13.2252 5.71938 13.1033 5.91322L11.6207 8.26977C11.4931 8.47265 11.5134 8.73506 11.6707 8.91586Z" fill="#AAAAAA"/>
</svg>
