<svg width="10" height="16" viewBox="0 0 10 16" fill="none" xmlns="http://www.w3.org/2000/svg">
<path d="M8.75732 0.00332907L6.57465 0C4.12248 0 2.53779 1.54552 2.53779 3.93762V5.75313H0.343205C0.153567 5.75313 0 5.89927 0 6.07954V8.71001C0 8.89028 0.153742 9.03625 0.343205 9.03625H2.53779V15.6738C2.53779 15.854 2.69135 16 2.88099 16H5.7443C5.93394 16 6.0875 15.8539 6.0875 15.6738V9.03625H8.65349C8.84312 9.03625 8.99669 8.89028 8.99669 8.71001L8.99774 6.07954C8.99774 5.99299 8.96149 5.91009 8.89723 5.84884C8.83297 5.78758 8.74541 5.75313 8.65436 5.75313H6.0875V4.2141C6.0875 3.47438 6.27294 3.09886 7.28662 3.09886L8.75697 3.09836C8.94643 3.09836 9.1 2.95222 9.1 2.77211V0.329578C9.1 0.149642 8.94661 0.00366197 8.75732 0.00332907Z" fill="#AAAAAA"/>
</svg>
